<svg xmlns="http://www.w3.org/2000/svg" viewBox="0 0 400 360">
  <path d="M222.88,31.40 L221.83,31.30 L221.85,31.41 L221.98,31.57 L222.15,31.62 L223.20,31.80 L224.51,31.89 L225.72,31.90 L227.00,31.59 L227.88,39.27 L227.89,39.56 L227.83,39.86 L226.58,40.68 L226.20,40.91 L218.87,44.67 L218.43,44.88 L218.09,44.94 L216.77,44.83 L216.14,44.75 L215.11,44.85 L213.58,46.16 L213.22,46.59 L213.09,46.83 L213.07,47.14 L213.15,47.39 L213.45,47.96 L213.75,48.40 L214.35,48.96 L214.61,49.11 L215.10,49.27 L216.02,49.26 L217.73,49.27 L218.13,49.36 L218.54,49.55 L218.71,49.76 L218.74,49.88 L218.96,50.94 L219.00,51.26 L217.82,52.82 L215.86,54.07 L219.36,52.17 L219.60,50.96 L222.23,49.90 L224.34,49.20 L226.19,48.65 L227.90,48.36 L231.49,48.25 L231.72,48.28 L232.04,48.41 L232.16,48.50 L232.35,49.27 L234.42,51.64 L234.63,51.82 L234.78,51.90 L235.26,52.08 L235.64,52.14 L241.78,52.70 L244.75,50.82 L245.24,49.31 L245.29,49.17 L246.35,47.51 L246.65,47.38 L246.84,47.39 L247.53,47.77 L247.97,47.74 L248.81,47.48 L249.06,47.32 L251.06,45.49 L251.23,45.26 L251.27,44.98 L251.14,44.75 L250.88,44.45 L250.76,44.22 L250.81,44.08 L251.11,43.77 L251.67,43.31 L253.27,42.05 L253.56,41.93 L253.91,41.84 L254.32,41.80 L256.38,41.76 L266.79,40.98 L273.05,40.15 L281.66,35.74 L282.38,35.23 L282.93,34.72 L286.45,30.91 L288.36,28.46 L290.38,27.07 L290.97,27.78 L295.25,28.24 L296.20,28.37 L297.09,28.42 L302.44,28.54 L306.34,28.50 L307.03,28.59 L307.51,28.93 L307.68,29.13 L307.71,29.26 L307.66,29.40 L307.56,29.50 L307.42,29.58 L305.80,29.95 L300.47,29.90 L299.20,29.42 L298.49,29.13 L297.70,29.13 L296.88,29.55 L296.42,30.10 L295.45,29.86 L287.70,30.69 L287.56,30.76 L285.97,31.77 L283.39,34.78 L283.32,34.90 L283.29,35.07 L283.52,36.74 L283.64,36.83 L284.21,37.12 L285.00,37.45 L285.40,37.54 L286.80,37.57 L287.16,37.48 L287.28,37.39 L287.13,37.33 L286.43,37.25 L286.03,37.16 L285.63,36.93 L285.46,36.73 L285.42,36.46 L285.52,36.17 L285.74,35.80 L286.03,35.48 L288.22,33.74 L288.45,33.56 L291.37,32.32 L292.78,31.96 L294.64,31.76 L297.18,31.60 L300.75,31.77 L312.06,30.51 L315.98,36.06 L316.15,36.26 L316.64,36.46 L320.28,37.34 L323.32,38.05 L323.58,38.22 L327.55,40.92 L330.79,44.45 L330.90,44.54 L331.94,44.89 L332.58,45.01 L332.81,45.01 L331.95,43.58 L331.98,43.45 L332.63,43.25 L341.84,41.08 L342.06,41.07 L342.35,41.14 L345.43,43.92 L345.90,44.94 L345.84,45.25 L345.30,46.68 L347.21,49.62 L348.83,53.38 L348.69,53.45 L346.83,54.70 L346.24,55.42 L346.18,55.56 L346.24,55.67 L346.48,56.14 L352.85,59.38 L364.40,62.81 L365.43,62.99 L366.21,62.95 L366.66,62.89 L368.14,69.53 L372.66,79.53 L372.64,81.13 L371.72,88.54 L371.32,89.82 L371.13,90.40 L370.01,92.76 L369.56,93.12 L367.71,94.21 L367.19,94.45 L364.62,95.65 L364.32,95.78 L363.37,95.91 L362.00,96.43 L361.15,96.92 L361.01,97.16 L360.98,97.33 L361.14,101.54 L363.20,103.49 L363.99,103.67 L369.85,106.68 L370.39,106.98 L371.36,107.64 L374.19,110.21 L375.38,111.18 L375.66,111.34 L376.70,111.77 L377.24,111.94 L377.66,112.02 L378.52,112.30 L379.13,112.55 L380.25,113.13 L381.00,113.60 L382.48,114.85 L382.56,114.96 L382.61,115.07 L382.43,118.43 L382.39,118.74 L381.82,119.36 L380.27,121.00 L380.04,121.17 L379.38,121.36 L379.03,121.43 L378.57,121.59 L378.46,121.68 L378.36,121.78 L378.07,122.61 L377.95,123.03 L377.95,123.17 L379.85,127.98 L380.01,128.19 L380.64,128.73 L380.88,128.88 L383.24,129.38 L384.84,129.65 L385.34,129.87 L385.63,130.14 L385.75,130.36 L387.82,138.18 L385.98,143.95 L385.89,144.13 L384.84,146.08 L384.61,146.26 L382.90,147.56 L382.78,147.65 L382.56,147.78 L381.51,148.16 L381.03,148.63 L380.95,148.75 L380.83,149.20 L380.77,149.67 L380.78,149.79 L381.01,150.24 L383.57,153.95 L383.73,154.16 L384.22,154.62 L385.08,155.17 L385.86,155.55 L386.40,155.84 L387.58,156.66 L387.63,156.78 L387.68,157.15 L387.83,159.10 L387.85,159.37 L387.79,159.69 L387.54,160.04 L385.82,161.99 L386.74,163.22 L387.04,163.36 L391.17,164.58 L394.81,165.35 L396.12,165.84 L396.26,165.92 L396.33,166.02 L397.19,167.25 L397.46,170.62 L397.02,171.04 L397.02,171.19 L397.41,171.99 L397.65,172.43 L398.06,172.79 L398.68,173.18 L399.56,174.01 L399.84,174.43 L399.95,175.07 L399.66,176.57 L398.01,182.14 L397.33,184.01 L396.79,185.15 L396.72,185.28 L395.25,187.51 L393.76,189.50 L390.74,192.85 L390.59,193.08 L390.62,193.34 L390.77,193.83 L390.62,194.26 L389.71,195.92 L389.60,195.99 L388.50,196.02 L388.08,196.02 L386.90,195.76 L385.94,195.52 L383.06,194.69 L381.75,194.30 L381.64,194.21 L381.59,194.10 L382.18,193.12 L382.04,191.16 L380.69,188.43 L379.46,187.37 L376.08,185.93 L368.14,185.15 L367.84,185.25 L367.09,185.89 L366.22,187.19 L365.78,187.95 L365.76,188.07 L365.81,188.19 L368.58,190.08 L368.71,190.15 L370.70,190.63 L368.22,193.07 L361.42,194.88 L354.40,196.16 L354.05,196.24 L350.47,197.36 L350.39,197.47 L349.88,198.31 L343.04,200.06 L340.22,200.30 L338.70,200.46 L336.41,201.05 L334.62,201.96 L333.30,203.77 L333.50,203.94 L333.68,204.13 L333.71,204.26 L333.62,204.36 L331.62,205.87 L331.25,206.10 L331.02,206.08 L330.06,205.87 L329.18,205.62 L329.04,205.55 L327.52,204.75 L321.97,206.57 L321.83,206.65 L320.79,207.74 L320.71,208.02 L320.71,208.16 L320.78,208.41 L320.78,208.56 L320.73,208.69 L320.13,209.63 L319.88,209.95 L319.35,210.56 L319.01,210.64 L314.48,210.82 L311.84,213.40 L311.52,213.67 L310.66,214.38 L310.38,214.51 L308.86,214.84 L308.35,214.94 L307.40,214.67 L306.64,214.22 L306.52,214.15 L304.73,213.40 L303.66,212.97 L303.11,212.84 L301.25,213.24 L300.91,213.31 L299.94,213.75 L299.44,214.04 L296.68,214.80 L294.58,214.80 L294.38,214.80 L290.02,215.64 L289.74,215.76 L288.60,216.60 L284.78,219.55 L281.59,222.93 L281.49,224.29 L279.79,223.89 L279.52,223.59 L275.94,219.70 L275.26,219.22 L275.12,219.14 L271.48,218.93 L272.66,219.54 L272.77,219.63 L276.49,226.01 L276.54,226.26 L276.52,226.42 L275.96,227.19 L275.85,227.46 L275.79,227.75 L276.39,228.93 L278.98,230.78 L280.81,231.64 L286.13,234.12 L287.94,234.49 L288.77,234.92 L288.89,234.99 L291.13,237.63 L291.19,237.74 L291.26,238.13 L291.25,238.58 L287.87,243.79 L287.79,243.90 L287.27,247.91 L288.16,248.13 L289.59,248.51 L289.77,248.56 L289.88,248.65 L290.27,249.29 L291.59,251.55 L292.63,254.15 L293.47,255.67 L296.81,260.41 L301.68,264.15 L302.10,264.35 L302.45,264.44 L305.72,264.89 L305.93,264.92 L306.12,264.90 L306.26,264.85 L306.35,264.75 L306.01,264.35 L305.96,264.24 L305.96,264.10 L306.05,264.02 L306.25,264.02 L308.64,264.36 L309.15,264.51 L309.56,264.71 L312.37,266.75 L318.56,272.32 L324.72,275.28 L325.09,275.51 L328.26,277.73 L328.33,277.83 L328.57,279.77 L333.25,281.32 L335.65,281.27 L336.34,281.40 L336.65,281.60 L336.80,281.91 L336.90,282.04 L337.17,282.27 L337.42,282.32 L338.34,282.21 L338.39,282.34 L338.28,282.48 L338.30,282.86 L338.98,284.02 L339.33,284.39 L339.61,284.62 L339.89,284.84 L340.09,284.92 L340.58,285.40 L341.16,285.67 L341.89,285.58 L342.40,285.67 L342.61,285.62 L342.94,285.43 L343.15,285.42 L343.33,285.52 L343.40,285.85 L343.55,286.16 L343.87,286.56 L344.02,286.87 L344.23,287.12 L344.30,287.28 L344.41,287.41 L344.58,287.51 L345.01,287.64 L345.29,287.87 L346.03,288.79 L346.52,289.28 L346.59,289.44 L346.60,289.63 L346.47,289.97 L346.44,290.18 L346.59,290.30 L347.33,290.45 L347.38,290.51 L346.55,292.16 L347.07,296.55 L347.09,296.74 L347.01,297.37 L346.90,297.74 L346.13,299.27 L346.02,299.41 L342.68,302.44 L340.81,301.80 L340.45,301.63 L340.11,301.44 L339.71,300.89 L339.44,300.65 L337.31,300.01 L334.00,299.23 L333.49,299.22 L333.05,299.32 L330.67,299.97 L330.28,300.13 L329.99,300.33 L330.00,300.53 L330.36,300.82 L330.53,301.10 L330.98,302.34 L330.96,302.54 L330.21,306.15 L330.03,306.69 L329.48,308.07 L329.41,308.24 L329.30,308.38 L328.24,309.35 L325.63,311.08 L324.67,311.67 L323.75,312.05 L323.17,312.26 L322.27,312.45 L317.75,312.76 L311.79,314.28 L305.56,316.79 L305.23,316.98 L300.87,320.17 L300.58,320.39 L300.47,320.54 L300.33,320.86 L300.25,321.22 L300.30,321.39 L300.73,322.32 L300.91,322.61 L301.98,323.52 L302.53,323.97 L303.93,324.88 L304.62,325.44 L304.83,325.70 L305.05,326.26 L305.14,326.51 L307.48,328.22 L309.56,330.56 L311.40,333.00 L309.85,334.89 L309.61,335.15 L308.77,335.84 L308.38,336.21 L307.20,338.60 L307.15,338.78 L307.12,339.00 L307.17,339.17 L307.42,339.41 L307.68,339.45 L310.36,339.56 L310.63,339.55 L310.82,339.47 L311.16,339.31 L311.63,339.01 L311.85,338.96 L312.08,338.97 L312.52,339.10 L313.56,339.85 L314.29,340.58 L314.50,340.85 L315.38,342.67 L315.39,342.86 L313.41,349.37 L313.33,349.54 L313.21,349.65 L311.74,350.74 L311.52,350.80 L311.23,350.78 L309.40,350.50 L308.95,350.37 L302.71,346.96 L302.45,346.73 L301.83,345.70 L301.68,345.40 L301.76,345.24 L302.30,344.15 L302.68,343.99 L302.92,343.97 L303.50,343.99 L303.63,343.88 L303.56,343.72 L303.32,343.48 L299.88,341.00 L299.48,340.86 L298.92,340.85 L296.44,340.82 L293.87,341.31 L293.69,341.39 L293.43,341.63 L292.54,342.71 L292.11,342.81 L289.99,343.26 L289.76,343.21 L289.59,343.12 L287.24,341.62 L276.17,342.09 L276.42,342.92 L276.46,343.49 L276.40,343.89 L276.32,344.06 L276.09,344.28 L275.93,344.37 L273.56,344.24 L272.24,344.07 L270.01,343.80 L267.67,343.62 L263.90,344.10 L253.57,345.46 L249.23,348.11 L248.98,348.36 L248.83,348.45 L247.96,348.65 L245.81,348.95 L243.73,348.81 L236.70,352.66 L228.68,354.13 L227.94,354.17 L225.02,354.21 L224.14,354.19 L223.06,354.08 L222.83,354.03 L222.62,353.97 L222.51,353.84 L219.82,348.54 L210.29,346.88 L204.99,347.51 L201.27,345.55 L201.28,345.34 L201.21,345.19 L201.01,345.12 L200.76,345.15 L199.50,345.49 L199.09,345.61 L198.91,345.69 L198.78,345.82 L199.19,348.02 L200.15,349.78 L200.55,350.13 L200.62,350.27 L200.64,350.46 L200.84,352.16 L200.80,352.35 L198.90,354.17 L194.98,357.92 L194.86,358.04 L194.52,358.23 L192.12,359.13 L190.31,359.69 L190.10,359.74 L189.83,359.76 L187.71,359.78 L189.39,357.57 L190.25,355.38 L190.31,355.21 L190.25,354.85 L182.03,349.59 L178.19,347.54 L172.02,345.05 L171.79,344.99 L170.67,345.01 L170.28,345.15 L169.82,345.46 L169.22,346.10 L168.94,346.56 L168.65,347.20 L168.34,347.74 L166.74,348.01 L164.95,348.01 L163.16,348.01 L163.01,348.01 L161.74,347.64 L161.25,347.50 L157.40,345.87 L147.92,341.85 L140.32,340.82 L139.95,340.78 L138.39,340.64 L137.59,340.69 L136.75,340.94 L136.39,341.09 L135.90,341.39 L135.37,341.63 L134.25,342.09 L133.66,342.30 L132.95,342.41 L132.39,342.43 L131.86,342.38 L131.44,342.25 L130.24,340.18 L129.35,339.29 L128.20,338.47 L127.99,338.41 L127.81,338.50 L126.84,339.08 L126.60,339.32 L126.62,339.51 L126.71,339.65 L127.81,340.97 L126.12,340.49 L125.42,340.36 L124.33,340.28 L124.72,339.95 L124.79,339.87 L124.94,339.68 L124.97,339.49 L125.06,337.61 L125.06,337.45 L124.97,337.29 L122.82,336.12 L121.76,335.60 L119.73,335.34 L119.46,335.31 L117.61,335.19 L117.33,335.21 L113.83,336.78 L113.68,336.89 L113.56,337.01 L110.65,339.95 L110.67,340.14 L110.94,341.13 L111.44,341.54 L113.66,342.58 L114.52,342.57 L115.52,342.45 L115.85,342.27 L115.95,342.12 L116.33,341.77 L116.72,341.63 L116.96,341.59 L118.24,341.58 L119.53,341.62 L119.99,341.93 L120.26,342.16 L120.37,342.29 L120.43,342.45 L120.36,342.62 L118.85,344.67 L118.71,344.78 L118.06,345.15 L117.75,344.82 L117.58,344.08 L117.44,343.76 L117.27,343.67 L116.09,343.24 L115.59,343.17 L115.21,343.31 L113.74,344.18 L113.20,344.63 L111.92,345.97 L109.96,345.67 L105.67,344.48 L105.48,344.21 L105.27,344.15 L103.42,343.85 L101.88,343.75 L101.59,343.75 L101.34,343.79 L100.99,343.95 L97.75,345.62 L97.63,345.75 L97.44,346.05 L97.38,346.21 L97.26,346.34 L96.93,346.52 L96.69,346.57 L94.37,346.78 L89.94,346.96 L89.37,346.93 L89.14,346.88 L88.83,346.69 L82.87,346.91 L79.70,347.37 L77.91,347.03 L76.38,346.55 L78.37,345.94 L78.52,345.84 L78.60,345.70 L78.82,344.58 L78.71,344.45 L77.23,344.57 L74.95,345.47 L75.02,345.09 L75.02,344.66 L74.85,344.36 L74.03,343.06 L73.77,342.82 L72.86,342.21 L72.36,341.94 L72.06,341.72 L71.95,341.59 L71.68,340.73 L71.57,339.97 L72.26,336.06 L73.60,332.61 L74.77,330.73 L76.43,327.69 L76.52,327.33 L76.53,326.91 L76.44,326.55 L76.27,326.26 L76.06,325.98 L74.76,325.01 L74.35,324.67 L74.23,324.54 L74.12,324.20 L74.01,323.49 L74.11,322.32 L74.14,322.14 L74.46,321.04 L74.54,320.73 L74.63,320.59 L75.80,318.68 L79.53,313.49 L81.84,310.99 L82.04,310.71 L82.08,310.30 L81.70,309.11 L81.42,308.27 L81.42,307.84 L81.81,306.63 L84.28,299.65 L87.68,295.57 L91.25,292.80 L96.93,289.13 L97.44,288.52 L97.55,288.27 L97.72,287.41 L97.82,287.15 L98.22,286.29 L98.84,285.10 L98.98,284.88 L101.22,282.27 L101.90,281.95 L102.77,281.70 L99.70,281.14 L95.18,279.81 L94.64,279.54 L90.23,277.79 L90.00,277.79 L85.12,277.91 L81.46,278.07 L78.47,278.10 L77.74,277.97 L76.78,277.03 L76.59,276.86 L70.53,272.46 L68.16,271.93 L67.77,271.86 L67.33,271.87 L66.02,272.04 L65.66,272.11 L65.52,272.16 L65.39,272.25 L65.31,272.63 L65.07,273.38 L64.99,273.48 L62.01,274.87 L61.84,274.92 L55.91,274.45 L53.24,274.16 L50.14,271.39 L46.42,269.90 L46.26,269.85 L45.83,269.86 L42.92,269.97 L42.64,270.10 L42.45,270.28 L42.37,270.40 L42.32,270.53 L42.36,270.65 L42.74,271.25 L42.97,271.55 L43.17,271.73 L43.23,271.84 L43.23,271.96 L43.16,272.08 L42.49,272.73 L42.26,272.89 L41.94,272.98 L41.52,272.94 L37.73,272.41 L37.55,272.38 L37.40,272.31 L37.23,272.12 L36.86,271.59 L36.82,271.46 L36.85,271.32 L36.92,271.21 L35.64,268.73 L31.61,263.27 L29.49,260.67 L29.25,260.37 L28.89,260.14 L27.84,259.59 L26.10,258.73 L23.82,258.06 L23.62,258.07 L21.47,258.82 L21.50,257.45 L21.22,255.75 L24.03,249.28 L26.00,248.11 L26.31,248.00 L26.81,247.88 L27.74,247.40 L28.56,242.82 L28.55,242.68 L28.45,242.57 L26.69,242.57 L24.42,242.67 L22.92,242.26 L19.68,240.85 L19.45,240.52 L16.81,239.36 L16.59,239.19 L15.89,238.58 L13.32,236.15 L13.22,236.05 L11.80,234.12 L11.37,233.20 L10.61,231.26 L10.59,231.12 L10.83,229.64 L11.26,228.46 L11.35,228.20 L11.53,227.93 L11.77,226.70 L12.82,223.61 L12.89,223.50 L13.23,223.09 L17.92,220.73 L20.93,219.38 L23.04,218.90 L22.00,213.48 L21.97,213.35 L21.86,213.12 L20.70,211.46 L20.24,211.21 L19.52,210.90 L19.17,210.82 L17.22,210.83 L16.48,206.61 L17.47,205.38 L17.52,205.25 L17.48,205.12 L17.39,205.02 L12.96,203.50 L8.06,200.40 L6.19,198.84 L6.02,196.77 L6.25,195.08 L6.28,194.94 L6.81,194.66 L7.68,194.47 L7.92,194.47 L8.13,194.63 L8.32,194.67 L8.49,194.63 L8.63,194.57 L8.80,194.36 L9.34,193.61 L9.37,193.47 L9.22,191.62 L9.17,191.51 L6.91,188.70 L6.79,188.63 L6.43,188.54 L3.44,188.32 L3.26,188.32 L2.73,188.45 L1.66,188.83 L1.32,188.92 L0.95,188.88 L-0.02,186.75 L-0.25,185.61 L-0.23,185.49 L-0.13,185.40 L1.42,184.71 L1.61,184.67 L1.76,184.74 L5.80,183.74 L9.92,181.57 L9.61,179.82 L9.32,179.69 L9.14,179.50 L9.02,179.26 L8.93,178.84 L8.78,177.84 L8.80,177.69 L8.82,177.55 L9.00,176.52 L9.11,176.42 L11.91,173.98 L15.36,170.91 L15.39,170.77 L15.36,166.10 L15.35,165.96 L14.72,164.06 L14.49,163.74 L12.59,161.82 L11.63,161.32 L11.40,161.17 L9.78,159.69 L9.73,159.56 L6.93,154.97 L3.58,153.08 L4.83,152.49 L5.05,152.32 L5.09,152.18 L5.00,151.55 L4.86,151.34 L4.13,150.40 L4.03,150.30 L5.80,149.27 L11.06,146.59 L13.62,146.25 L20.99,148.43 L25.86,148.18 L28.68,147.21 L31.61,146.21 L35.16,145.39 L35.57,145.38 L35.84,145.52 L35.93,145.62 L36.29,145.87 L37.10,146.14 L37.27,146.12 L38.23,145.75 L39.56,145.05 L40.09,144.74 L41.83,143.00 L41.91,142.73 L41.88,142.45 L41.71,141.94 L40.59,141.08 L40.32,140.94 L37.45,139.78 L37.79,137.87 L38.80,136.12 L42.42,135.97 L42.86,135.94 L43.21,135.85 L43.56,135.61 L43.71,135.39 L43.83,134.98 L43.89,134.54 L43.95,134.42 L44.98,133.49 L45.11,133.41 L47.75,132.62 L51.13,130.71 L51.61,130.42 L50.66,128.99 L50.51,128.61 L50.51,128.46 L50.55,128.15 L50.70,127.60 L50.95,126.96 L51.83,125.81 L52.33,125.11 L52.39,124.83 L52.15,123.58 L51.99,123.22 L51.86,122.99 L48.89,120.17 L48.75,120.10 L48.59,120.15 L48.15,120.68 L47.80,120.94 L47.29,121.25 L47.15,121.31 L46.94,121.34 L39.02,120.19 L38.53,120.03 L36.45,118.96 L36.31,118.74 L35.72,116.03 L35.78,115.91 L37.19,115.56 L38.65,115.38 L38.80,115.31 L38.86,115.20 L37.49,112.94 L37.34,112.71 L37.03,112.45 L37.11,112.32 L38.68,111.41 L39.17,111.27 L39.77,111.18 L44.70,111.23 L45.03,111.28 L45.17,111.35 L45.50,111.60 L45.67,111.81 L45.81,111.89 L50.38,112.18 L50.64,112.18 L50.85,112.17 L51.18,112.07 L51.39,111.89 L51.54,111.67 L51.70,111.28 L51.86,110.73 L52.07,108.07 L52.14,106.65 L52.11,105.89 L52.15,105.10 L52.21,104.48 L52.33,103.75 L52.65,103.31 L53.26,102.74 L55.10,100.33 L57.13,98.24 L57.72,97.18 L57.92,96.82 L58.03,96.56 L58.46,95.11 L58.52,94.47 L58.33,87.06 L58.38,83.98 L59.98,80.81 L60.20,80.63 L60.47,80.49 L61.15,80.45 L63.25,80.53 L63.67,80.58 L63.99,80.69 L64.23,80.86 L64.40,81.08 L64.64,81.23 L64.79,81.30 L65.19,81.37 L64.93,80.94 L64.61,80.53 L64.19,80.31 L63.79,80.23 L59.19,79.65 L57.31,79.45 L54.80,79.49 L53.33,79.58 L52.49,79.67 L51.82,79.62 L51.50,79.50 L51.38,79.41 L51.18,79.22 L50.35,78.33 L50.14,78.00 L50.01,77.61 L49.98,77.47 L49.92,76.48 L49.97,76.03 L50.25,74.75 L50.66,73.04 L50.75,72.77 L53.13,68.27 L53.48,67.84 L53.74,67.69 L57.35,65.52 L59.19,64.47 L59.64,64.26 L62.20,63.53 L64.17,63.38 L68.94,63.43 L69.68,63.45 L69.90,63.48 L70.42,63.63 L71.46,64.12 L71.91,64.16 L74.66,63.71 L79.75,62.84 L86.08,62.20 L87.79,62.04 L88.88,61.95 L90.69,62.04 L92.11,62.14 L93.28,62.39 L93.80,62.54 L94.06,62.68 L94.16,62.79 L94.21,62.91 L93.95,63.23 L93.89,63.36 L93.86,63.50 L93.88,63.95 L93.99,64.20 L94.92,65.79 L95.44,66.25 L98.32,68.18 L99.77,69.10 L99.87,69.20 L100.00,69.42 L100.15,69.79 L100.18,70.09 L100.25,70.83 L100.24,70.96 L100.04,71.14 L98.81,71.57 L98.30,71.72 L97.41,71.90 L96.60,72.00 L95.67,71.96 L95.59,72.07 L95.60,72.21 L95.80,73.02 L95.95,73.38 L96.22,73.83 L96.41,74.03 L97.18,74.66 L101.84,76.52 L102.01,76.57 L102.64,76.68 L103.14,76.69 L103.56,76.65 L103.74,76.61 L105.17,75.93 L105.52,75.67 L105.68,75.46 L106.42,74.34 L106.57,74.11 L106.65,73.66 L106.86,72.14 L106.89,71.67 L106.86,71.39 L106.64,71.05 L106.37,70.91 L106.14,70.89 L105.71,70.92 L104.81,71.13 L104.41,71.18 L103.27,71.23 L103.08,71.19 L103.03,71.07 L103.04,70.60 L103.25,69.42 L103.51,68.11 L104.30,67.33 L104.81,67.01 L105.27,66.83 L106.26,66.69 L107.00,66.69 L107.80,66.84 L114.48,69.55 L115.52,71.46 L115.09,71.84 L114.89,72.03 L114.56,72.46 L114.33,72.81 L114.21,73.06 L114.08,73.47 L113.97,74.22 L114.03,75.87 L114.08,76.43 L114.23,77.56 L114.32,77.96 L114.62,78.55 L114.86,78.83 L115.01,78.45 L115.07,77.98 L114.98,75.56 L114.94,75.12 L114.66,74.38 L114.55,73.83 L114.64,73.39 L114.79,72.99 L115.00,72.64 L115.22,72.45 L117.38,71.38 L117.58,71.10 L117.70,70.85 L117.70,70.55 L117.67,70.42 L117.24,69.76 L115.23,66.68 L114.49,65.53 L114.21,65.08 L114.09,64.70 L113.98,64.15 L113.95,63.72 L113.99,63.30 L114.19,62.76 L116.82,57.38 L117.97,55.85 L118.22,55.52 L119.13,54.65 L119.27,54.56 L119.60,54.45 L121.37,54.01 L121.94,53.89 L122.60,53.85 L122.74,53.93 L123.72,54.72 L123.94,54.92 L124.02,55.17 L124.09,55.28 L124.67,55.56 L125.91,56.07 L126.74,56.35 L127.69,56.57 L130.12,56.86 L132.50,56.93 L137.43,56.07 L141.12,55.30 L142.15,55.17 L145.83,55.22 L146.08,55.24 L148.58,55.51 L148.75,55.56 L148.89,55.62 L149.36,55.96 L150.50,56.83 L150.68,57.02 L151.86,58.32 L153.08,60.04 L154.37,61.44 L154.67,61.72 L160.43,66.98 L161.06,67.55 L161.53,67.88 L161.95,68.11 L165.88,69.53 L166.88,69.77 L169.89,70.07 L171.53,70.49 L171.93,70.57 L172.37,70.59 L172.58,70.57 L172.74,70.50 L172.85,70.41 L172.91,70.30 L172.91,70.14 L172.75,69.94 L172.51,69.77 L172.34,69.70 L170.73,69.26 L170.30,69.19 L168.86,69.09 L168.12,69.06 L167.04,68.93 L166.28,68.77 L165.48,68.46 L161.63,66.84 L161.01,66.47 L160.38,65.92 L155.63,61.03 L155.31,60.60 L154.73,59.56 L154.32,58.59 L153.74,57.24 L153.68,57.12 L151.27,55.79 L150.83,55.58 L149.02,54.79 L148.67,54.69 L146.76,54.24 L146.17,54.12 L145.49,54.04 L139.28,53.70 L136.23,54.02 L135.81,54.06 L135.10,53.84 L134.24,53.27 L133.37,52.70 L132.78,52.29 L132.16,51.72 L131.43,50.78 L129.99,48.58 L129.43,47.68 L129.38,47.55 L129.58,47.36 L129.84,47.20 L130.17,47.09 L130.69,46.94 L131.33,46.89 L131.76,46.94 L133.33,47.27 L134.16,47.57 L134.81,47.96 L135.27,48.16 L135.61,48.13 L136.56,47.78 L136.67,47.69 L137.02,46.96 L137.09,46.68 L137.28,45.06 L135.27,42.90 L130.36,43.26 L129.88,42.93 L129.76,42.84 L129.10,42.14 L128.90,41.81 L128.37,40.90 L128.52,40.21 L128.83,39.41 L129.61,37.41 L129.67,37.28 L129.78,37.19 L130.12,37.09 L131.46,35.39 L129.12,35.43 L123.25,36.50 L123.19,36.61 L123.06,36.69 L122.57,36.69 L122.11,36.65 L121.51,36.53 L120.99,36.37 L120.47,36.09 L119.60,35.06 L119.40,34.72 L119.22,34.36 L119.10,33.98 L119.05,33.71 L119.06,33.56 L120.04,31.49 L120.56,30.83 L120.78,30.65 L121.10,30.54 L121.30,30.51 L126.44,30.00 L128.83,29.78 L129.03,29.82 L129.18,29.90 L129.46,30.19 L129.58,30.27 L129.81,30.30 L130.23,30.24 L131.60,29.85 L136.30,28.10 L136.75,27.72 L137.19,27.18 L137.25,27.05 L137.38,26.20 L137.27,25.96 L136.77,25.48 L135.13,23.98 L134.80,23.86 L134.22,23.74 L133.93,23.59 L133.12,23.13 L132.87,22.98 L130.03,20.30 L128.43,18.10 L128.03,17.30 L125.82,16.10 L124.95,15.66 L123.31,14.47 L121.51,11.98 L121.20,11.54 L121.07,11.32 L120.93,10.80 L120.85,10.26 L117.93,9.69 L118.09,9.19 L118.24,8.88 L116.71,8.75 L109.93,8.92 L106.11,9.24 L106.02,9.36 L105.91,9.78 L105.76,10.85 L105.66,12.50 L105.72,12.77 L106.00,13.22 L106.02,13.52 L105.94,14.78 L105.93,14.84 L105.49,14.90 L105.22,14.60 L105.17,14.47 L105.15,14.20 L105.15,13.17 L105.19,11.18 L105.25,10.39 L105.61,7.64 L105.80,7.10 L106.16,6.17 L106.47,5.56 L109.20,1.23 L109.62,0.68 L110.07,0.32 L110.58,0.15 L110.84,0.17 L112.42,0.32 L112.95,0.48 L113.11,0.55 L112.03,1.66 L111.30,2.17 L110.81,2.34 L110.41,2.40 L110.25,2.47 L109.14,3.04 L108.35,4.02 L108.28,4.30 L108.30,5.02 L111.09,6.16 L111.17,6.57 L111.29,6.77 L111.51,6.92 L111.70,7.00 L112.84,7.37 L113.22,7.42 L114.31,7.37 L119.01,7.12 L119.19,6.77 L119.21,6.57 L121.90,6.79 L122.84,7.45 L123.42,7.73 L124.29,7.81 L125.83,7.52 L126.20,7.45 L127.19,7.11 L129.07,6.75 L129.61,6.76 L133.04,7.02 L133.96,7.14 L143.90,9.01 L146.31,9.54 L146.72,9.91 L146.48,10.44 L146.72,10.89 L147.13,11.26 L147.59,11.61 L151.48,11.62 L152.19,11.44 L152.61,11.05 L152.62,10.96 L153.05,10.64 L153.65,10.39 L154.62,10.48 L155.96,10.84 L155.81,11.10 L155.62,11.66 L155.69,11.91 L161.76,10.83 L165.35,11.45 L170.80,12.66 L175.34,12.53 L175.63,12.40 L176.05,12.35 L176.52,12.43 L177.35,12.85 L178.49,13.47 L178.97,13.81 L179.13,14.02 L181.76,17.97 L181.80,18.24 L181.90,19.73 L181.57,23.32 L180.63,24.54 L180.43,24.74 L180.17,24.92 L178.87,25.53 L175.49,26.71 L174.53,26.92 L173.61,26.84 L173.40,26.87 L173.32,26.98 L173.33,27.12 L173.69,27.52 L174.20,27.84 L174.49,27.98 L174.85,28.06 L175.50,28.01 L180.44,27.07 L184.58,26.39 L184.99,26.34 L185.69,26.35 L196.22,28.86 L206.75,32.32 L207.77,32.81 L208.02,32.97 L208.20,33.17 L208.34,33.40 L208.60,33.70 L209.78,34.54 L210.07,34.69 L210.27,34.74 L210.98,34.80 L213.52,34.81 L214.18,34.76 L214.52,34.67 L215.15,34.43 L215.97,34.03 L216.25,33.88 L216.61,33.63 L216.93,33.34 L218.77,32.26 L221.01,31.26 L221.41,31.19 L221.66,31.21 L222.88,31.40 Z" fill="white" stroke="white" stroke-width="1.5" stroke-linejoin="round"/>
</svg>