<svg xmlns="http://www.w3.org/2000/svg" viewBox="0 0 420 560" fill="none">
  <path
    stroke="#0f172a"
    stroke-width="4"
    stroke-linejoin="round"
    stroke-linecap="round"
    d="
      M 62.6,134.7
      L 62.6,124.1
      L 93.8,106.3
      L 105.0,117.0
      L 123.8,118.4
      L 130.9,94.3
      L 136.3,81.5
      L 151.9,90.7
      L 160.9,51.0
      L 167.6,26.2
      L 183.2,17.7
      L 193.9,56.7
      L 218.9,93.6
      L 256.9,90.7
      L 281.5,78.0
      L 326.2,65.2
      L 339.6,79.4
      L 370.9,93.6
      L 388.7,141.8
      L 391.0,187.8
      L 389.6,239.6
      L 408.8,294.2
      L 375.3,310.5
      L 344.0,333.2
      L 317.2,340.3
      L 299.4,345.9
      L 321.7,389.9
      L 344.0,455.1
      L 352.1,471.4
      L 321.7,528.1
      L 286.0,533.1
      L 317.2,538.7
      L 245.7,551.5
      L 196.6,552.9
      L 165.3,542.3
      L 122.9,524.6
      L 80.4,538.7
      L 98.3,513.9
      L 94.7,480.6
      L 107.2,440.9
      L 58.1,409.7
      L 25.9,381.4
      L 18.8,361.5
      L 17.0,345.9
      L 8.0,317.6
      L 9.8,294.2
      L 18.8,237.5
      L 45.6,190.0
      L 61.7,136.1
      Z
    "
  />
</svg>